<?xml version="1.0" encoding="utf-8"?>
<!-- Generator: Adobe Illustrator 25.3.1, SVG Export Plug-In . SVG Version: 6.00 Build 0)  -->
<svg version="1.1" id="Capa_1" xmlns="http://www.w3.org/2000/svg" xmlns:xlink="http://www.w3.org/1999/xlink" x="0px" y="0px"
	 viewBox="0 0 138.25 139.58" style="enable-background:new 0 0 138.25 139.58;" xml:space="preserve">
<style type="text/css">
	.st0{fill:#2C6495;}
	.st1{fill:#FFFFFF;}
</style>
<g>
	<circle class="st0" cx="69.04" cy="69.81" r="66.27"/>
	<path class="st1" d="M82.61,80.67c-1.33-2.46-2.67-4.92-3.99-7.38c-2.61-4.88-5.22-9.76-7.83-14.63c-0.35-0.65-0.31-0.73,0.43-0.73
		c0.96,0,1.92,0.03,2.87-0.01c0.52-0.02,0.78,0.19,1.02,0.63c2.38,4.51,4.78,9,7.19,13.5c0.12,0.22,0.15,0.54,0.52,0.54
		c0.37,0,0.47-0.28,0.61-0.54c2.39-4.48,4.78-8.96,7.15-13.45c0.27-0.52,0.58-0.71,1.16-0.68c0.93,0.05,1.87,0,2.81,0.02
		c0.58,0.01,0.68,0.17,0.41,0.67c-3.87,7.24-7.74,14.47-11.61,21.71c-0.07,0.13-0.15,0.25-0.23,0.37
		C82.95,80.67,82.78,80.67,82.61,80.67z"/>
	<path class="st1" d="M113.04,77.42c-1.69,0.49-2.41-0.45-3.09-1.83c-2.06-4.14-4.25-8.21-6.4-12.3c-0.14-0.26-0.21-0.63-0.6-0.64
		c-0.43-0.01-0.5,0.39-0.65,0.66c-2.35,4.48-4.7,8.96-7.02,13.45c-0.25,0.49-0.54,0.7-1.11,0.68c-0.93-0.04-1.87-0.01-2.81-0.01
		c-0.76,0-0.86-0.17-0.5-0.85c2.95-5.52,5.91-11.04,8.86-16.56c0.85-1.59,1.7-3.18,2.55-4.77c0.14-0.26,0.23-0.57,0.65-0.58
		c0.41,0,0.52,0.29,0.66,0.56c3.82,7.15,7.65,14.29,11.47,21.44c0.29,0.55,0.18,0.75-0.45,0.76
		C114.08,77.42,113.56,77.42,113.04,77.42z"/>
	<path class="st1" d="M44,70.26c-0.59-0.86-1.47-1.32-2.4-1.83c0.61-0.35,1.09-0.77,1.48-1.28c1.7-2.27,1.28-5.74-0.92-7.59
		c-1.35-1.14-2.94-1.62-4.67-1.63c-3.68-0.02-7.37,0-11.05-0.02c-0.62,0-0.78,0.23-0.78,0.81c0.01,7.07,0.01,14.14,0.01,21.2
		c0,0.27,0,0.54,0.22,0.75c3.87,0,13.54-0.2,13.77-0.24C44.55,79.53,46.77,74.34,44,70.26z M29.38,61.85c0-0.44,0.14-0.65,0.61-0.64
		c2.43,0.02,4.87-0.03,7.3,0.05c2.25,0.07,3.41,1.73,2.84,3.88c-0.29,1.11-1.22,1.8-2.61,1.96c-1.37,0.16-2.74,0.04-3.85,0.08
		c-1.35,0-2.43-0.02-3.51,0.01c-0.54,0.01-0.8-0.15-0.78-0.74C29.4,64.92,29.39,63.38,29.38,61.85z M40.96,75.83
		c-0.63,1.09-1.74,1.37-2.88,1.48c-2.45,0.24-4.91,0.07-7.36,0.11c-1.48,0.02-1.34,0.1-1.34-1.34c0-1.64,0.02-3.27-0.01-4.91
		c-0.01-0.53,0.16-0.74,0.71-0.73c1.27,0.03,2.54,0.01,4.07,0.01c1.27,0.07,2.81-0.12,4.34,0.14
		C41.07,71.02,42.27,73.57,40.96,75.83z"/>
	<path class="st1" d="M67.47,70.25c-0.58-0.86-1.46-1.32-2.38-1.83c0.61-0.35,1.08-0.77,1.47-1.28c1.69-2.27,1.27-5.74-0.91-7.59
		c-1.34-1.14-2.93-1.62-4.65-1.63c-3.66-0.02-7.33,0-10.99-0.02c-0.61,0-0.78,0.23-0.78,0.81c0.01,7.07,0.01,14.14,0.01,21.2
		c0,0.27,0,0.54,0.22,0.75c3.85,0,13.47-0.2,13.69-0.24C68.02,79.53,70.22,74.34,67.47,70.25z M52.93,61.85
		c0-0.44,0.14-0.65,0.6-0.64c2.42,0.02,4.84-0.03,7.26,0.05c2.24,0.07,3.39,1.73,2.82,3.88c-0.29,1.11-1.21,1.8-2.59,1.96
		c-1.36,0.16-2.73,0.04-3.83,0.08c-1.34,0-2.41-0.02-3.49,0.01c-0.54,0.01-0.79-0.15-0.78-0.74C52.96,64.91,52.94,63.38,52.93,61.85
		z M64.45,75.83c-0.63,1.09-1.73,1.37-2.86,1.48c-2.43,0.24-4.88,0.07-7.32,0.11c-1.47,0.02-1.34,0.1-1.34-1.34
		c0-1.64,0.02-3.27-0.01-4.91c-0.01-0.53,0.16-0.74,0.71-0.73c1.26,0.03,2.52,0.01,4.05,0.01c1.26,0.07,2.8-0.12,4.32,0.14
		C64.55,71.02,65.75,73.56,64.45,75.83z"/>
</g>
</svg>
