<?xml version="1.0" encoding="utf-8"?>
<!-- Generator: Adobe Illustrator 25.4.1, SVG Export Plug-In . SVG Version: 6.00 Build 0)  -->
<svg version="1.1" id="Capa_1" xmlns="http://www.w3.org/2000/svg" xmlns:xlink="http://www.w3.org/1999/xlink" x="0px" y="0px"
	 viewBox="0 0 495.7 275.4" style="enable-background:new 0 0 495.7 275.4;" xml:space="preserve">
<style type="text/css">
	.st0{fill:#F25B23;}
	.st1{fill:#FDCC05;}
	.st2{fill:#8DC83C;}
	.st3{fill:#217DCA;}
	.st4{fill:#804297;}
	.st5{enable-background:new    ;}
	.st6{fill:#092E85;}
	.st7{font-family:'ArialMT';}
	.st8{font-size:18px;}
	.st9{fill:none;}
</style>
<g id="Capa_6">
</g>
<g id="Capa_5">
</g>
<g id="Capa_4">
</g>
<g id="Capa_2_1_">
</g>
<g id="Capa_3">
</g>
<g>
	<path class="st0" d="M297.6,196c0,0-39.8-46.3-46.1-67.9c0,0-21.9-66.2-19.9-85.4c0,0,1-2.3,6.6,0c0,0,9.9-2.3,24.9,34.1l9.3,31.8
		c0,0,11.9-90.1,4-108.6h28.2c0,0,0.7,55.3,4.6,57.6c0,0,1,1.7,3,0.3c2-1.3,5.6-48.1,3.6-58H346c0,0,1,50,3,55.7c0,0,3.3,4,4-2
		c0,0,9-41.5,6.3-53.7h24.5c0,0-2.3,71.9,0,71.5c0,0,16.6-66.5,20.9-70.2l6-1.4H423c0,0-14.3,108.3-15.3,114.6
		c0,0-21.6,78.8-23.2,81.4h-86.9V196z"/>
	<path class="st1" d="M215.2,195.3l1.3-24.4c0,0,7.4-0.8,10.9,10.8v3.6v9.9h9.9c0,0,13.1-66.8,16.7-69.3c0,0,7.1-5.1,8.3,1.4
		c0,0-5.1,55.1-5.4,60.3c0,0,1.3,2.4,2.4,0.1c1.1-2.3,17.1-66.6,20.5-68.1c0,0,5-3.5,6.8,2.1c0,0-4.5,53.7-7.6,69.8
		c0,0,0.5,3.9,3.5,0.1c0,0,16.9-61.8,19.7-59.3c0,0,3.6-1.4,5.2,1.1c0,0,3.1,4.5-0.8,22.4c0,0-8.2,32.9-8.9,34.3
		c0,0-0.7,4.4-0.4,5.1h3.9c0,0,18.2-34.6,22.1-33.1c0,0,2.9-0.7,2.2,9.3c0,0-7.1,22.2-8,23.8C316.8,196.9,215.2,195.3,215.2,195.3z"
		/>
	<path class="st2" d="M39.9,196c-0.5,0-1-0.2-1.3-0.7c-3-3.9-18.5-24.5-20.9-35.3c-2.4-10.9-3.4-14.6-3.5-15.1c0-0.1,0-0.1-0.1-0.1
		l-0.8-2.2c0-0.1-0.1-0.1-0.1-0.2l-2.3-4.4c-0.1-0.1-0.1-0.2-0.2-0.3l-1.5-1.8c-0.2-0.3-0.4-0.7-0.4-1.1v-0.6c0-0.9,0.8-1.7,1.7-1.7
		h4.7c0.5,0,0.9,0.2,1.2,0.5c2.8,2.8,16.4,16.8,21.9,29c0.7,1.5,2.9,1.2,3.2-0.4v-0.3c0-0.1,0-0.2,0-0.3v-7.3c0-0.1,0-0.1,0-0.1
		l-1.1-12c0-0.1,0-0.1,0-0.2l-1.8-9l-6-32l-1.8-9.7l-1.3-8.6l-0.6-4.6c0-0.1,0-0.1,0-0.1l-1-4.6c0-0.1,0-0.2,0-0.4V68
		c0-0.2,0-0.4,0.1-0.6c0.5-1.5,3.5-8.6,9.7-2.1c0.1,0.1,0.2,0.2,0.2,0.3l1.6,2.6c0.1,0.1,0.1,0.2,0.2,0.3l1.9,5.3l1.7,4.3
		c0,0.1,0,0.1,0.1,0.2L58.7,133c0.3,1.1,1.5,1.6,2.5,1l0,0c1.7-1.1-8.3-71.4-8.6-73.8v-0.1l-0.4-7.5c0-0.1,0-0.2,0-0.4
		c0.2-1.5,2-10.5,9.1-3.5c0.1,0.1,0.2,0.2,0.3,0.4l2.9,4.9c0.1,0.1,0.1,0.2,0.2,0.4l1.2,4.1c0,0,0,0.1,0.1,0.2l1.5,3.6
		c0,0.1,0.1,0.2,0.1,0.2L84,128.1c0,0,0.9,1.8,3.1,0s-1.1-32.4-2-37.5s0.9,5.1,0.9,5.1L80.5,56c0-0.3,0-0.7,0.1-0.9
		c0.8-1.7,4-7.3,9.8-1.9c0.1,0.1,0.2,0.2,0.3,0.3l2.4,3.8c0.1,0.1,0.1,0.2,0.2,0.3l1.2,3.2c0,0.1,0.1,0.2,0.1,0.3l1.1,5.4l11.3,66.6
		c0,0,0.7,2.4,2,0s4.8-46.6,5.1-49.5c0-0.1,0-0.2,0.1-0.3l0.8-3c0-0.1,0.1-0.3,0.2-0.4c0.7-1.2,4.4-7.2,7.8-0.6
		c0,0.1,0.1,0.1,0.1,0.2l1.5,4c0,0.1,0.1,0.2,0.1,0.2l1.1,5.3c0,0.1,0,0.2,0,0.2c0.1,2,1.5,28.7,1.1,36.9c0,0-0.6,57.7-1.5,68.1
		c-0.1,0.9-0.8,1.5-1.7,1.5L39.9,196L39.9,196z"/>
	<path class="st3" d="M89.7,196l-1.7-2.4l-1-1.5v-2v-1.2c0,0,2.8-0.7,7.5,0.8L106,196h18.8c0,0-11.4-66.8-9.9-75.9l3.1-1.2h1.7
		l1.7,0.7l1.4,1.8l1,2.4l2,6.9c0,0,12.6,44.7,14.3,50.8c0,0,0.9,2.1,2.3,0l-7-72.5l1-2.1l1.2-1l1.8-0.9h1.8l1.9,0.7l1.1,0.9l1.6,2.6
		l0.7,1.8c0,0,13.4,59.5,15.1,65.4c0,0,1.2,2.3,3.5,0c0,0-3.6-59.5-4.5-62.9l0.2-1.6l1.4-1.5l1.4-1.1c0,0,2.5-1.1,3.9,0s2,2.1,2,2.1
		l1.1,1.3l0.6,1.3l0.4,1.5c0,0,9.7,64.8,10.3,67.3c0,0,1.4,1.8,1.8-0.1s4.2-52.9,9.2-51.5c0,0,0.8-0.6,2.3,0c0,0,3,3.4,4.5,17.4
		s0,47.6,0,47.6L89.7,196L89.7,196z"/>
	<path class="st4" d="M344.5,196c-1.5,0-2.9-1.2-3-2.7c-0.8-9.2-3.3-39.7-1.1-53.8c0,0,4.3-43.5,9.3-43.2c0,0,1.1-0.3,2.9,0.7
		s4.2,3.4,6.8,8.7c0.1,0.3,0.2,0.7,0.3,1c0.4,3.8,2.5,26.8-1.3,39.1c-0.1,0.2-0.1,0.5-0.1,0.7c0,1.3,0.1,5,4.1-0.1
		c0.1-0.2,0.3-0.4,0.4-0.6l44.7-98.1c0.2-0.4,0.5-0.8,0.9-1.1c1.6-1.3,6.4-4.3,9.3,1.5c0.3,0.6,0.4,1.3,0.2,2
		c-1.5,7.1-11.6,52.8-20.1,76.5c-0.2,0.7-0.3,1.4,0,2.1c0.4,0.9,1.2,1.6,3-0.6c2.8-3.4,36.4-72.8,39.9-79.9c0.2-0.4,0.5-0.8,0.9-1.1
		c1.8-1.4,7.4-4.8,10.5,1.4c0.3,0.7,0.4,1.4,0.2,2.1c-2.4,8.6-19.4,69-27.2,84.8c-0.2,0.5-0.4,1-0.3,1.6c0.1,1.6,0.8,4.6,4.5,0.3
		c0.1-0.1,0.2-0.3,0.3-0.4c2.2-3.8,32.4-54.9,34.3-65.2c0.1-0.5,0.3-0.9,0.6-1.3c2-2.6,9.6-11.2,12.3,2.8c0.1,0.6,0,1.1-0.2,1.7
		l-33.8,82c0,0,0.3,3.3,3,0.7c0,0,33.2-46.5,41.1-46.5c0,0,5.8-2.9,4.4,6.2c0,0.2-0.1,0.5-0.2,0.7c-0.7,1.6-3.8,8.9-8.2,17.9
		c-1,2.1-2.1,4.3-3.3,6.5c-1.1,2.1-2.3,4.3-3.5,6.4c-1.6,2.8-3.3,5.6-5,8.3c-3.5,5.4-7.1,10.4-10.8,14.2c-0.1,0.1-0.2,0.3-0.3,0.4
		l-15.5,23.2c-0.6,0.8-1.5,1.3-2.5,1.3L344.5,196L344.5,196z"/>
</g>
<text transform="matrix(1 0 0 1 39.2747 220.3685)" class="st5"><tspan x="0" y="0" class="st6 st7 st8">Con tu apoyo contribuyes a brindar una vida digna</tspan><tspan x="124.1" y="21.6" class="st6 st7 st8"> a nuestro mayores</tspan></text>
<rect x="270" y="198.1" class="st9" width="4" height="76.5"/>
</svg>
