<?xml version="1.0" standalone="no"?>
<!DOCTYPE svg PUBLIC "-//W3C//DTD SVG 20010904//EN"
 "http://www.w3.org/TR/2001/REC-SVG-20010904/DTD/svg10.dtd">
<svg version="1.0" xmlns="http://www.w3.org/2000/svg"
 width="1200.000000pt" height="1296.000000pt" viewBox="0 0 1200.000000 1296.000000"
 preserveAspectRatio="xMidYMid meet">

<g transform="translate(0.000000,1296.000000) scale(0.100000,-0.100000)"
fill="#000000" stroke="none">
<path d="M4566 11245 l-969 -1695 -1743 0 c-959 0 -1744 -3 -1744 -7 0 -5 261
-462 578 -1018 l578 -1010 1810 -3 1811 -2 318 557 c175 307 321 562 325 566
4 5 38 -46 76 -113 54 -95 71 -118 79 -106 5 8 39 56 75 107 69 99 279 323
361 386 27 20 49 41 49 46 0 5 -143 259 -317 564 -207 363 -319 550 -324 541
-5 -7 -246 -429 -537 -938 l-529 -925 -1383 0 -1383 0 -193 338 -193 337 1358
0 1358 0 749 1311 c413 721 754 1311 759 1311 7 0 830 -1426 998 -1729 11 -20
16 -16 92 74 107 127 272 275 398 358 31 21 57 39 57 41 0 5 -1531 2687 -1539
2696 -4 5 -443 -755 -975 -1687z"/>
<path d="M8780 11180 c-637 -65 -1168 -525 -1324 -1145 -14 -55 -28 -129 -32
-165 l-6 -66 -76 -49 c-339 -219 -578 -569 -662 -967 -11 -51 -20 -106 -20
-123 0 -40 -2 -42 -105 -110 -115 -76 -294 -250 -379 -368 -123 -172 -211
-368 -258 -578 -20 -90 -23 -131 -23 -309 0 -161 4 -223 18 -290 134 -619 577
-1066 1194 -1202 144 -32 454 -32 600 0 127 28 251 71 370 128 l91 45 79 -39
c43 -21 99 -47 126 -57 l47 -18 0 -218 0 -219 -1152 0 -1153 0 -320 -560
c-175 -308 -322 -560 -325 -560 -3 1 -148 253 -324 560 l-319 560 -579 0
c-548 0 -580 1 -575 18 2 9 218 391 479 847 l475 830 -809 3 c-445 1 -1171 1
-1612 0 l-803 -3 192 -336 192 -335 -873 -1527 -873 -1527 1747 -2 1746 -3
962 -1684 c530 -926 966 -1687 971 -1692 5 -5 435 738 977 1686 l969 1695
1743 2 1743 3 -578 1010 -577 1010 -152 3 -152 3 0 219 c0 218 0 219 23 225
12 4 68 29 125 56 l102 49 103 -49 c117 -56 253 -101 382 -128 138 -27 434
-25 575 6 402 86 737 310 964 644 59 87 146 265 180 367 92 277 99 613 20 888
-100 345 -316 646 -609 845 l-99 67 -18 108 c-35 212 -117 418 -239 603 -84
126 -282 324 -409 408 l-95 63 -18 112 c-74 450 -350 844 -752 1075 -98 56
-253 120 -355 146 -168 43 -381 61 -540 45z m275 -676 c158 -16 327 -99 459
-223 248 -236 332 -623 202 -932 -6 -14 3 -18 61 -24 413 -44 733 -378 759
-794 7 -106 -12 -243 -45 -331 l-19 -49 37 -6 c186 -26 297 -64 412 -140 168
-112 285 -272 345 -472 24 -77 27 -106 28 -228 1 -169 -14 -236 -84 -380 -85
-177 -207 -298 -386 -386 -136 -67 -258 -93 -404 -86 -106 5 -200 23 -200 37
0 5 18 39 39 77 88 151 159 376 181 568 63 564 -207 1127 -691 1441 l-66 43
-17 108 c-71 442 -355 849 -751 1077 -201 115 -489 196 -699 196 -36 0 -66 3
-66 8 0 25 102 175 163 239 144 151 329 244 526 263 75 7 100 7 216 -6z m-667
-1204 c100 -28 192 -71 266 -124 91 -65 206 -192 250 -276 21 -39 36 -73 34
-74 -1 -2 -63 -8 -136 -15 -355 -32 -668 -173 -920 -415 -233 -224 -384 -500
-449 -821 -27 -137 -25 -435 5 -571 32 -148 66 -244 135 -384 34 -69 63 -128
65 -131 8 -17 -112 -34 -238 -33 -192 0 -308 35 -467 140 -192 127 -326 337
-363 567 -17 103 -8 270 20 367 29 102 100 235 168 316 133 157 345 273 533
290 93 9 94 10 71 81 -47 142 -53 340 -16 478 84 314 346 560 659 619 108 21
285 14 383 -14z m748 -1180 c309 -79 537 -311 620 -630 21 -81 24 -280 5 -365
-91 -414 -466 -699 -885 -672 -123 8 -202 30 -321 87 -177 86 -299 208 -385
385 -70 144 -85 211 -84 380 1 122 4 151 28 228 84 277 284 485 551 572 150
49 317 54 471 15z m-5716 -1673 c0 -2 -215 -382 -478 -843 l-479 -839 966 -3
966 -2 534 -936 c294 -514 537 -936 540 -938 3 -3 247 417 542 932 l537 937
1379 3 1379 2 189 -331 c105 -183 192 -336 193 -341 2 -4 -606 -8 -1351 -8
l-1356 0 -755 -1321 -754 -1321 -31 53 c-17 30 -356 623 -754 1319 l-723 1265
-1355 5 -1356 5 676 1183 675 1182 408 0 c224 0 408 -2 408 -3z"/>
</g>
</svg>
