<?xml version="1.0" encoding="utf-8"?>
<!-- Generator: Adobe Illustrator 25.3.1, SVG Export Plug-In . SVG Version: 6.00 Build 0)  -->
<svg version="1.1" xmlns="http://www.w3.org/2000/svg" xmlns:xlink="http://www.w3.org/1999/xlink" x="0px" y="0px"
	 viewBox="0 0 138.25 139.58" style="enable-background:new 0 0 138.25 139.58;" xml:space="preserve">
<style type="text/css">
	.st0{display:none;}
	.st1{display:inline;fill:#2C6495;}
	.st2{display:inline;fill:#FFFFFF;}
	.st3{fill:#5DD62B;}
	.st4{fill:#003086;}
	.st5{fill:#009BDD;}
	.st6{fill:#012169;}
</style>
<g id="Capa_1" class="st0">
	<circle class="st1" cx="69.04" cy="69.81" r="66.27"/>
	<path class="st2" d="M82.61,80.67c-1.33-2.46-2.67-4.92-3.99-7.38c-2.61-4.88-5.22-9.76-7.83-14.63c-0.35-0.65-0.31-0.73,0.43-0.73
		c0.96,0,1.92,0.03,2.87-0.01c0.52-0.02,0.78,0.19,1.02,0.63c2.38,4.51,4.78,9,7.19,13.5c0.12,0.22,0.15,0.54,0.52,0.54
		c0.37,0,0.47-0.28,0.61-0.54c2.39-4.48,4.78-8.96,7.15-13.45c0.27-0.52,0.58-0.71,1.16-0.68c0.93,0.05,1.87,0,2.81,0.02
		c0.58,0.01,0.68,0.17,0.41,0.67c-3.87,7.24-7.74,14.47-11.61,21.71c-0.07,0.13-0.15,0.25-0.23,0.37
		C82.95,80.67,82.78,80.67,82.61,80.67z"/>
	<path class="st2" d="M113.04,77.42c-1.69,0.49-2.41-0.45-3.09-1.83c-2.06-4.14-4.25-8.21-6.4-12.3c-0.14-0.26-0.21-0.63-0.6-0.64
		c-0.43-0.01-0.5,0.39-0.65,0.66c-2.35,4.48-4.7,8.96-7.02,13.45c-0.25,0.49-0.54,0.7-1.11,0.68c-0.93-0.04-1.87-0.01-2.81-0.01
		c-0.76,0-0.86-0.17-0.5-0.85c2.95-5.52,5.91-11.04,8.86-16.56c0.85-1.59,1.7-3.18,2.55-4.77c0.14-0.26,0.23-0.57,0.65-0.58
		c0.41,0,0.52,0.29,0.66,0.56c3.82,7.15,7.65,14.29,11.47,21.44c0.29,0.55,0.18,0.75-0.45,0.76
		C114.08,77.42,113.56,77.42,113.04,77.42z"/>
	<path class="st2" d="M44,70.26c-0.59-0.86-1.47-1.32-2.4-1.83c0.61-0.35,1.09-0.77,1.48-1.28c1.7-2.27,1.28-5.74-0.92-7.59
		c-1.35-1.14-2.94-1.62-4.67-1.63c-3.68-0.02-7.37,0-11.05-0.02c-0.62,0-0.78,0.23-0.78,0.81c0.01,7.07,0.01,14.14,0.01,21.2
		c0,0.27,0,0.54,0.22,0.75c3.87,0,13.54-0.2,13.77-0.24C44.55,79.53,46.77,74.34,44,70.26z M29.38,61.85c0-0.44,0.14-0.65,0.61-0.64
		c2.43,0.02,4.87-0.03,7.3,0.05c2.25,0.07,3.41,1.73,2.84,3.88c-0.29,1.11-1.22,1.8-2.61,1.96c-1.37,0.16-2.74,0.04-3.85,0.08
		c-1.35,0-2.43-0.02-3.51,0.01c-0.54,0.01-0.8-0.15-0.78-0.74C29.4,64.92,29.39,63.38,29.38,61.85z M40.96,75.83
		c-0.63,1.09-1.74,1.37-2.88,1.48c-2.45,0.24-4.91,0.07-7.36,0.11c-1.48,0.02-1.34,0.1-1.34-1.34c0-1.64,0.02-3.27-0.01-4.91
		c-0.01-0.53,0.16-0.74,0.71-0.73c1.27,0.03,2.54,0.01,4.07,0.01c1.27,0.07,2.81-0.12,4.34,0.14
		C41.07,71.02,42.27,73.57,40.96,75.83z"/>
	<path class="st2" d="M67.47,70.25c-0.58-0.86-1.46-1.32-2.38-1.83c0.61-0.35,1.08-0.77,1.47-1.28c1.69-2.27,1.27-5.74-0.91-7.59
		c-1.34-1.14-2.93-1.62-4.65-1.63c-3.66-0.02-7.33,0-10.99-0.02c-0.61,0-0.78,0.23-0.78,0.81c0.01,7.07,0.01,14.14,0.01,21.2
		c0,0.27,0,0.54,0.22,0.75c3.85,0,13.47-0.2,13.69-0.24C68.02,79.53,70.22,74.34,67.47,70.25z M52.93,61.85
		c0-0.44,0.14-0.65,0.6-0.64c2.42,0.02,4.84-0.03,7.26,0.05c2.24,0.07,3.39,1.73,2.82,3.88c-0.29,1.11-1.21,1.8-2.59,1.96
		c-1.36,0.16-2.73,0.04-3.83,0.08c-1.34,0-2.41-0.02-3.49,0.01c-0.54,0.01-0.79-0.15-0.78-0.74C52.96,64.91,52.94,63.38,52.93,61.85
		z M64.45,75.83c-0.63,1.09-1.73,1.37-2.86,1.48c-2.43,0.24-4.88,0.07-7.32,0.11c-1.47,0.02-1.34,0.1-1.34-1.34
		c0-1.64,0.02-3.27-0.01-4.91c-0.01-0.53,0.16-0.74,0.71-0.73c1.26,0.03,2.52,0.01,4.05,0.01c1.26,0.07,2.8-0.12,4.32,0.14
		C64.55,71.02,65.75,73.56,64.45,75.83z"/>
</g>
<g id="Capa_2">
	<circle class="st3" cx="70.67" cy="70" r="66.27"/>
</g>
<g id="Capa_3">
	<g>
		<path class="st4" d="M14.83,78.7c-0.32,0.02-0.47-0.24-0.67-0.41c0-0.26,0-0.52,0-0.78c0.34-3.07,0.91-6.1,1.38-9.15
			c0.64-4.13,1.3-8.27,1.96-12.4c0.02-0.13,0.05-0.26,0.07-0.39c0.09-0.59,0.37-1.02,0.99-1.16c3.48,0,6.96,0,10.44,0
			c0.45,0.15,0.93,0.14,1.39,0.23c1.87,0.39,3.47,1.17,4.36,2.97c0.56,1.13,0.58,2.32,0.41,3.53c-0.01,0.08-0.02,0.15-0.03,0.23
			c0.04,0.11,0.02,0.18-0.12,0.15c-0.73-0.55-1.6-0.66-2.47-0.81c-0.5-0.08-1.01-0.09-1.52-0.09c-2.26,0.01-4.52,0-6.78,0
			c-0.89,0-1.13,0.2-1.27,1.08c-0.43,2.68-0.85,5.35-1.28,8.03c-0.02,0.14-0.03,0.28-0.01,0.43c-0.47,2.6-0.84,5.22-1.27,7.83
			c-0.01,0.05-0.01,0.1-0.02,0.15c-0.09,0.56-0.09,0.56-0.66,0.56C18.09,78.7,16.46,78.74,14.83,78.7z"/>
		<path class="st5" d="M14.83,78.7c1.65,0,3.3-0.02,4.94,0c0.31,0,0.42-0.07,0.47-0.39c0.21-1.42,0.44-2.84,0.67-4.27
			c0.19-1.18,0.37-2.36,0.56-3.53c0.02-0.13,0.09-0.24,0.14-0.36c0.13-0.41,0.47-0.63,1.04-0.64c0.81-0.02,1.62,0,2.43-0.01
			c1.02,0,2.03-0.09,3.03-0.3c3.16-0.68,5.28-2.53,6.33-5.59c0.18-0.53,0.34-1.07,0.45-1.62c0.03-0.15,0.03-0.32,0.16-0.43
			c0.03-0.06,0.05-0.11,0.08-0.17c1.43,0.74,2.14,1.98,2.24,3.53c0.14,2.26-0.39,4.38-1.73,6.24c-1.21,1.69-2.96,2.5-4.97,2.83
			c-0.83,0.14-1.66,0.16-2.5,0.16c-0.88,0-1.23,0.3-1.37,1.16c-0.28,1.79-0.57,3.58-0.86,5.36c-0.12,0.75-0.5,1.06-1.25,1.06
			c-1.36,0-2.72,0-4.08,0c-0.64,0-0.88-0.26-0.79-0.91c0.08-0.58,0.17-1.16,0.28-1.74c0.06-0.28-0.02-0.36-0.3-0.35
			c-1.52,0.01-3.03,0.01-4.55,0C15.11,78.74,14.96,78.78,14.83,78.7z"/>
		<path class="st4" d="M83.48,72.64c0.09-0.13,0.17-0.23,0.24-0.34c1.25-1.83,2.51-3.66,3.74-5.5c0.27-0.4,0.59-0.58,1.07-0.57
			c0.86,0.02,1.73,0.01,2.59,0c0.26,0,0.51,0.04,0.63,0.3c0.11,0.24,0.02,0.45-0.12,0.65c-3.26,4.69-6.53,9.38-9.79,14.07
			c-0.23,0.33-0.52,0.48-0.93,0.48c-0.9-0.01-1.8-0.01-2.71,0c-0.25,0-0.47-0.05-0.59-0.29c-0.12-0.24-0.03-0.45,0.12-0.65
			c0.94-1.32,1.87-2.64,2.82-3.95c0.15-0.2,0.17-0.37,0.09-0.61c-1.04-3.03-2.08-6.05-3.11-9.08c-0.22-0.64-0.03-0.91,0.65-0.91
			c0.85,0,1.7,0,2.55,0c0.59,0,0.85,0.2,1.02,0.77c0.54,1.79,1.08,3.59,1.63,5.38C83.41,72.46,83.44,72.53,83.48,72.64z"/>
		<path class="st5" d="M122.55,77.72c-0.37,0-0.73,0-1.1,0c-0.59,0-0.78-0.22-0.69-0.81c0.21-1.36,0.43-2.73,0.65-4.09
			c0.49-3.07,0.97-6.15,1.46-9.22c0.13-0.85,0.27-1.7,0.4-2.55c0.06-0.36,0.25-0.55,0.64-0.55c0.89,0.01,1.78,0,2.67,0
			c0.46,0,0.67,0.26,0.6,0.71c-0.64,4.02-1.28,8.05-1.92,12.07c-0.19,1.2-0.38,2.39-0.57,3.59c-0.09,0.56-0.39,0.82-0.95,0.84
			c-0.01,0-0.03,0-0.04,0C123.3,77.72,122.93,77.72,122.55,77.72z"/>
		<path class="st6" d="M35.05,61.55c-0.61,3.97-2.81,6.86-6.88,7.74c-1.78,0.38-3.58,0.3-5.38,0.3c-0.49,0-0.89,0.15-1.19,0.55
			c-0.19-0.29,0-0.59,0.04-0.86c0.21-1.45,0.45-2.89,0.68-4.33c0.19-1.19,0.37-2.38,0.56-3.56c0.1-0.57,0.48-0.87,1.08-0.87
			c2.59,0,5.17-0.02,7.76,0.01c1.04,0.01,2.06,0.23,3.03,0.67C34.9,61.26,35.07,61.33,35.05,61.55z"/>
		<path class="st5" d="M106.59,64.23c-0.13-1.68-1.11-2.76-2.69-3.31c-0.75-0.26-1.52-0.38-2.31-0.39
			c-2.17-0.02-4.34-0.01-6.51-0.01c-0.55,0-0.85,0.26-0.94,0.79c-0.14,0.85-0.27,1.7-0.41,2.55c-0.69,4.36-1.39,8.72-2.08,13.08
			c-0.09,0.56,0.11,0.78,0.67,0.78c0.94,0,1.88,0,2.82,0c0.53,0,0.72-0.17,0.8-0.7c0.21-1.36,0.43-2.73,0.64-4.09
			c0.11-0.71,0.38-0.94,1.1-0.95c0.44-0.01,0.89,0,1.33,0c0.68,0,1.36,0,2.03-0.11c1.62-0.25,3.04-0.88,4.05-2.22
			C106.31,68.04,106.74,66.19,106.59,64.23z M99.8,68.46c-0.41,0.05-0.83,0.06-1.24,0.09c-0.33,0-0.66,0-0.98,0
			c-0.18,0-0.29-0.01-0.24-0.26c0.21-1.27,0.4-2.54,0.6-3.81c0.04-0.28,0.18-0.51,0.49-0.51c0.77-0.01,1.54-0.06,2.3,0.13
			c0.77,0.2,1.18,0.59,1.22,1.37C102.04,67.05,101.43,68.25,99.8,68.46z"/>
		<path class="st4" d="M62.57,64.36c-0.11-1.49-0.81-2.59-2.18-3.23c-0.63-0.3-1.3-0.46-1.99-0.54c-1.33-0.15-2.67-0.03-3.76-0.07
			c-1.36,0-2.49,0-3.61,0c-0.54,0-0.85,0.28-0.94,0.81c-0.18,1.13-0.36,2.26-0.54,3.4c-0.64,4.08-1.29,8.16-1.93,12.24
			c-0.08,0.52,0.11,0.76,0.65,0.76c0.85,0,1.7,0,2.55,0c0.77,0,1.04-0.25,1.16-1.02c0.19-1.24,0.38-2.47,0.58-3.71
			c0.14-0.84,0.37-1.01,1.24-1.02c1.08-0.01,2.17,0.06,3.25-0.11c2.29-0.35,3.98-1.5,4.88-3.68C62.42,66.96,62.66,65.68,62.57,64.36
			z M57.76,66.84c-0.31,1.01-1.07,1.57-2.27,1.64c-0.33,0.02-0.65,0-0.98,0c0,0.02,0,0.03,0,0.05c-0.31,0-0.63-0.02-0.94,0
			c-0.27,0.02-0.3-0.09-0.27-0.32c0.2-1.25,0.4-2.49,0.6-3.74c0.06-0.37,0.26-0.54,0.64-0.53c0.73,0.02,1.46-0.04,2.18,0.15
			c0.79,0.21,1.19,0.7,1.21,1.51C57.95,66.03,57.88,66.44,57.76,66.84z"/>
		<path class="st4" d="M75.89,66.85c-0.93-0.01-1.86,0-2.79,0c-0.38,0-0.57,0.2-0.63,0.56c-0.03,0.21-0.07,0.42-0.11,0.71
			c-0.44-0.74-1.05-1.11-1.78-1.3c-1.29-0.33-2.59-0.35-3.87,0.06c-3.26,1.03-5.13,4.35-4.74,7.56c0.32,2.59,2.06,4.09,4.66,4.16
			c1.65,0.05,3.07-0.49,4.34-1.65c-0.03,0.24-0.06,0.42-0.09,0.6c-0.08,0.57,0.09,0.78,0.65,0.79c0.8,0,1.6,0.01,2.39,0
			c0.59-0.01,0.88-0.27,0.98-0.85c0.28-1.75,0.56-3.5,0.84-5.25c0.25-1.56,0.49-3.11,0.73-4.67C76.55,67.08,76.35,66.85,75.89,66.85
			z M71.81,72.78c-0.37,1.63-1.67,2.67-3.35,2.66c-1.73-0.01-2.68-1.12-2.44-2.85c0.28-1.98,2.19-3.27,4.14-2.78
			C71.44,70.13,72.13,71.37,71.81,72.78z"/>
		<path class="st5" d="M119.59,66.24c-0.86,0-1.73,0-2.59,0c-0.52,0-0.65,0.12-0.74,0.65c-0.03,0.17-0.06,0.35-0.1,0.53
			c-0.96-0.91-1.09-1.02-1.7-1.19c-1.33-0.36-2.66-0.38-3.98,0.04c-3.47,1.11-5.17,4.7-4.7,7.68c0.3,1.88,1.27,3.27,3.19,3.82
			c0.97,0.28,1.96,0.28,2.95,0.07c1.04-0.22,1.95-0.71,2.75-1.44c0.08,0.2,0.02,0.36,0,0.53c-0.09,0.53,0.1,0.78,0.63,0.78
			c0.81,0.01,1.62,0.01,2.43,0c0.56-0.01,0.89-0.28,0.97-0.82c0.52-3.29,1.05-6.58,1.57-9.88
			C120.35,66.47,120.16,66.24,119.59,66.24z M111.35,74.72c-0.92-0.27-1.49-0.97-1.59-1.93c-0.22-2.27,1.86-4.1,4.09-3.6
			c1.15,0.26,1.82,1.13,1.8,2.36C115.63,73.77,113.49,75.35,111.35,74.72z"/>
	</g>
</g>
</svg>
